#!OML:ASF H:\Terrain\Patient Classification 1\Walking\steve\steve.ASF
:FULLY-SPECIFIED
:DEGREES
126
root 7.26491 15.5912 -7.38146 7.92457 -12.494 -1.29093
lowerback -2.06099 7.06506 0.292179
upperback -4.10878 9.37408 -2.6736
thorax -2.59525 4.64353 -2.89418
lowerneck -11.3581 -2.16353 -2.22997
upperneck 13.7655 -3.07938 3.4426
head 6.13033 -1.33848 1.1928
rclavicle -6.07722e-014 1.27222e-014
rhumerus -18.3987 8.26702 -84.2684
rradius 47.3033
rwrist -19.5865
rhand -21.5188 -40.5335
rfingers 7.12502
rthumb 4.87342 -70.4575
lclavicle -6.07722e-014 1.27222e-014
lhumerus -75.3486 33.6861 18.8483
lradius 11.5026
lwrist -29.789
lhand -25.1299 -12.1473
lfingers 7.12502
lthumb 1.38607 17.828
rfemur -3.94465 7.19764 19.361
rtibia 58.4964
rfoot 2.25023 0.823751
rtoes -18.0444
lfemur -38.5369 5.45365 -22.7192
ltibia 48.1498
lfoot -16.8657 -0.79581
ltoes -1.70438
127
root 7.27013 15.636 -7.16655 7.66068 -12.3653 -1.03996
lowerback -2.03482 6.81776 0.0187382
upperback -3.85523 9.04878 -2.57056
thorax -2.42081 4.49162 -2.63071
lowerneck -11.886 -2.03156 -2.03075
upperneck 14.0663 -2.91475 3.30021
head 6.30652 -1.25173 1.12487
rclavicle 1.35669e-013 -9.54166e-015
rhumerus -19.8631 7.80042 -84.99
rradius 47.0463
rwrist -19.2044
rhand -21.1558 -41.7387
rfingers 7.12502
rthumb 5.22394 -71.6543
lclavicle 1.35669e-013 -9.54166e-015
lhumerus -73.2501 35.516 21.9566
lradius 11.3147
lwrist -29.2886
lhand -25.2737 -11.5893
lfingers 7.12502
lthumb 1.24719 18.3868
rfemur -5.5873 6.85128 19.2603
rtibia 59.9566
rfoot -0.181823 1.11595
rtoes -18.4254
lfemur -37.037 5.08998 -23.0269
ltibia 47.5015
lfoot -17.2405 -1.00071
ltoes -0.0914694
128
root 7.27173 15.6829 -6.94871 7.39267 -12.3636 -0.760502
lowerback -1.81214 6.62656 -0.468215
upperback -3.80537 8.79419 -2.38724
thorax -2.60506 4.37622 -2.21548
lowerneck -12.0062 -1.87689 -2.14653
upperneck 14.3802 -2.70177 3.37241
head 6.4236 -1.14546 1.18541
rclavicle 2.08693e-014 -4.77083e-015
rhumerus -21.4889 7.09985 -85.5574
rradius 46.4612
rwrist -18.5053
rhand -21.2216 -43.7112
rfingers 7.12502
rthumb 5.16036 -73.6284
lclavicle 2.08693e-014 -4.77083e-015
lhumerus -69.6141 36.0277 27.9846
lradius 11.6824
lwrist -26.1048
lhand -25.0026 -10.2712
lfingers 7.12502
lthumb 1.50903 19.7032
rfemur -7.30538 6.63788 19.151
rtibia 61.2668
rfoot -2.32878 1.36092
rtoes -18.8147
lfemur -35.4074 4.90355 -23.3837
ltibia 46.6821
lfoot -17.7293 -1.21022
ltoes 0.67111
129
root 7.27886 15.7265 -6.72434 7.26882 -12.276 -0.278274
lowerback -1.95585 6.49651 -0.928769
upperback -3.77233 8.62286 -2.37197
thorax -2.56608 4.30237 -1.93507
lowerneck -11.5102 -1.85906 -2.17988
upperneck 14.3176 -2.65863 3.26077
head 6.31565 -1.14096 1.16266
rclavicle 4.37854e-014 -2.38542e-014
rhumerus -23.0967 5.75618 -85.9516
rradius 45.5735
rwrist -17.3673
rhand -19.5343 -44.1306
rfingers 7.12502
rthumb 6.78935 -74.0017
lclavicle 4.37854e-014 -2.38542e-014
lhumerus -65.1705 35.7942 34.9428
lradius 12.4866
lwrist -22.2589
lhand -24.8484 -10.0202
lfingers 7.12502
lthumb 1.65799 19.9531
rfemur -9.19964 6.25165 18.7661
rtibia 62.375
rfoot -4.35166 1.6684
rtoes -17.3557
lfemur -33.867 4.5175 -24.0046
ltibia 45.713
lfoot -18.1784 -1.38973
ltoes 1.93767
130
root 7.29427 15.7693 -6.49859 7.08484 -12.0475 0.061256
lowerback -2.09458 6.30026 -0.954649
upperback -3.61625 8.3656 -2.43183
thorax -2.32781 4.17493 -1.95193
lowerneck -11.3842 -1.84219 -2.04339
upperneck 14.3707 -2.62976 3.05174
head 6.30532 -1.13736 1.07711
rclavicle -1.16438e-013 2.38542e-015
rhumerus -24.5692 4.43288 -86.3698
rradius 44.3723
rwrist -16.3687
rhand -18.4846 -42.7385
rfingers 7.12502
rthumb 7.80259 -72.5746
lclavicle -1.16438e-013 2.38542e-015
lhumerus -60.7809 35.5363 41.0829
lradius 13.1022
lwrist -18.9742
lhand -24.9804 -9.74889
lfingers 7.12502
lthumb 1.53045 20.2254
rfemur -10.9494 5.63474 18.5551
rtibia 63.2083
rfoot -6.34839 1.96907
rtoes -17.2917
lfemur -32.2121 3.8125 -24.4522
ltibia 44.6767
lfoot -18.5966 -1.22759
ltoes 2.55408
131
root 7.30633 15.8164 -6.27841 6.8366 -11.8842 0.376693
lowerback -1.91534 5.9897 -1.24304
upperback -3.50872 7.95055 -2.37164
thorax -2.37398 3.97405 -1.75167
lowerneck -11.7314 -1.65284 -1.97776
upperneck 14.7555 -2.3945 3.08305
head 6.48104 -1.01173 1.09527
rclavicle -3.55731e-014 2.74323e-014
rhumerus -26.1518 3.67716 -86.8337
rradius 42.9962
rwrist -15.8885
rhand -19.0535 -40.0623
rfingers 7.12502
rthumb 7.25349 -69.918
lclavicle -3.55731e-014 2.74323e-014
lhumerus -57.4584 35.765 45.413
lradius 13.4331
lwrist -16.8656
lhand -24.6437 -10.3975
lfingers 7.12502
lthumb 1.85566 19.5741
rfemur -12.6244 5.10393 18.4016
rtibia 63.8991
rfoot -8.33848 2.11138
rtoes -17.5353
lfemur -30.4853 3.3087 -24.8959
ltibia 43.574
lfoot -19.0338 -1.08021
ltoes 2.59567
132
root 7.3101 15.8629 -6.06724 6.77783 -11.774 0.694232
lowerback -1.86326 5.72928 -1.64595
upperback -3.43998 7.60369 -2.33766
thorax -2.39545 3.80982 -1.50218
lowerneck -12.0301 -1.45959 -2.04873
upperneck 15.0447 -2.17446 3.39575
head 6.62356 -0.878632 1.22631
rclavicle 4.71415e-014 -6.75868e-015
rhumerus -27.6704 2.9664 -87.2629
rradius 42.2989
rwrist -15.5068
rhand -19.4448 -39.3344
rfingers 7.12502
rthumb 6.87577 -69.2028
lclavicle 4.71415e-014 -6.75868e-015
lhumerus -54.1679 36.0789 49.1537
lradius 13.526
lwrist -15.4396
lhand -24.0753 -12.4089
lfingers 7.12502
lthumb 2.40463 17.5573
rfemur -14.5841 4.82812 18.2781
rtibia 64.5685
rfoot -10.3004 2.30315
rtoes -15.66
lfemur -28.9972 3.0729 -25.3652
ltibia 42.4248
lfoot -19.2803 -1.14675
ltoes 2.91565
133
root 7.31274 15.9063 -5.85492 6.79155 -11.5991 0.994842
lowerback -1.99372 5.52349 -1.86765
upperback -3.39852 7.33436 -2.3203
thorax -2.31293 3.68033 -1.34749
lowerneck -11.8904 -1.33682 -2.27484
upperneck 15.0476 -1.99985 3.59372
head 6.5992 -0.792091 1.34397
rclavicle 1.29272e-014 1.51076e-014
rhumerus -29.1863 1.88094 -87.4521
rradius 41.1972
rwrist -15.3562
rhand -18.6287 -43.0705
rfingers 7.12502
rthumb 7.66352 -72.9116
lclavicle 1.29272e-014 1.51076e-014
lhumerus -49.9233 35.1316 54.3675
lradius 13.931
lwrist -12.699
lhand -24.055 -13.606
lfingers 7.12502
lthumb 2.42422 16.3599
rfemur -16.6324 4.63932 18.1948
rtibia 65.1633
rfoot -12.1163 2.52923
rtoes -13.0384
lfemur -27.59 2.80457 -25.8282
ltibia 41.3012
lfoot -19.5178 -1.04118
ltoes 2.01723
134
root 7.31515 15.9441 -5.63803 6.66122 -11.3684 1.33107
lowerback -2.04016 5.26981 -2.19527
upperback -3.34482 7.00087 -2.22798
thorax -2.28493 3.52164 -1.06827
lowerneck -11.3635 -1.22558 -2.2724
upperneck 14.7194 -1.80421 3.33192
head 6.39449 -0.726363 1.27822
rclavicle 5.90375e-014 -4.77083e-015
rhumerus -30.6025 0.633654 -87.422
rradius 39.7922
rwrist -14.584
rhand -18.3791 -40.7864
rfingers 7.12502
rthumb 7.90447 -70.6187
lclavicle 5.90375e-014 -4.77083e-015
lhumerus -45.5311 33.2633 59.9394
lradius 14.4859
lwrist -9.24079
lhand -23.9805 -14.2022
lfingers 7.12502
lthumb 2.49622 15.763
rfemur -18.482 4.35921 18.131
rtibia 65.5815
rfoot -13.8293 2.32058
rtoes -13.0437
lfemur -26.0947 2.56499 -26.3218
ltibia 40.2995
lfoot -19.7984 -1.08672
ltoes 1.23092
135
root 7.31914 15.9664 -5.42409 6.56687 -11.2161 1.39816
lowerback -2.08953 5.06747 -2.25269
upperback -3.21381 6.73754 -2.14824
thorax -2.13812 3.3912 -0.94213
lowerneck -11.1463 -1.16515 -1.92045
upperneck 14.4056 -1.72276 2.97668
head 6.24889 -0.700034 1.11399
rclavicle -2.92058e-014 -1.11319e-014
rhumerus -31.8 -0.70999 -87.3453
rradius 38.2563
rwrist -13.3795
rhand -17.7408 -41.7802
rfingers 7.12502
rthumb 8.52045 -71.5883
lclavicle -2.92058e-014 -1.11319e-014
lhumerus -41.2095 30.9272 65.0017
lradius 15.0641
lwrist -5.81107
lhand -23.9508 -13.6306
lfingers 7.12502
lthumb 2.52491 16.3342
rfemur -20.2718 4.13306 18.3943
rtibia 65.7404
rfoot -15.4664 1.84178
rtoes -14.8935
lfemur -24.6988 2.20933 -26.4808
ltibia 39.4542
lfoot -20.1811 -1.45088
ltoes 2.94722
136
root 7.32721 15.9725 -5.21149 6.57897 -11.063 1.18787
lowerback -2.09453 4.86878 -1.98851
upperback -3.16791 6.47456 -2.02145
thorax -2.07202 3.25537 -0.952921
lowerneck -11.3398 -1.09158 -1.76263
upperneck 14.6129 -1.64752 2.93874
head 6.34463 -0.655346 1.0823
rclavicle 4.82022e-014 -1.43125e-014
rhumerus -33.3182 -1.60784 -87.3787
rradius 36.835
rwrist -13.6417
rhand -18.4917 -39.2879
rfingers 7.12502
rthumb 7.7958 -69.1242
lclavicle 4.82022e-014 -1.43125e-014
lhumerus -37.6944 28.7232 69.0618
lradius 16.1087
lwrist -3.0099
lhand -23.8205 -12.5074
lfingers 7.12502
lthumb 2.65071 17.4558
rfemur -22.0208 3.95129 18.9514
rtibia 65.6944
rfoot -16.9241 1.41034
rtoes -14.6134
lfemur -23.4051 1.69999 -26.3601
ltibia 38.6764
lfoot -20.8432 -1.56153
ltoes 4.28941
137
root 7.32969 15.9848 -4.99845 6.5791 -10.6949 1.26597
lowerback -1.99402 4.57481 -2.08643
upperback -3.24392 6.0793 -1.91093
thorax -2.22874 3.06175 -0.800941
lowerneck -11.3951 -0.987523 -1.89458
upperneck 15.015 -1.51063 3.05787
head 6.48057 -0.584205 1.15524
rclavicle -2.92695e-014 1.23246e-014
rhumerus -35.091 -2.36414 -87.3651
rradius 35.5018
rwrist -14.4802
rhand -20.3398 -35.9104
rfingers 7.12502
rthumb 6.0118 -65.8052
lclavicle -2.92695e-014 1.23246e-014
lhumerus -34.5819 25.6276 72.9002
lradius 17.2977
lwrist 0.458549
lhand -23.432 -11.9986
lfingers 7.12502
lthumb 3.02587 17.9597
rfemur -23.6905 3.5895 19.2224
rtibia 65.4993
rfoot -18.4077 1.25875
rtoes -11.7814
lfemur -22.162 1.48887 -26.6016
ltibia 37.904
lfoot -21.3765 -1.1159
ltoes 1.35119
